# xmcd
#
# Track frame offsets:
#	150
#	16455
#	32624
#	47337
#	62453
#	77608
#	95990
#	109797
#	122322
#	137397
#	153645
#	166782
#	181909
#	197677
#	213015
#	231018
#	245978
#	262026
# Disc length: 3709 seconds
# Revision: 1
# Processed by: cddbd v1.5.2PL0 Copyright (c) Steve Scherf et al.
#
# Submitted via: libkcddb 0.31
#
DISCID=e50e7b12
DTITLE=Banda 40 graus - Sonhei com ela vol2
DYEAR=1900
DGENRE=MPB
TTITLE0=Coração em pedaços
TTITLE1=Lembranças
TTITLE2=Sonhei com ela
TTITLE3=Por Deus
TTITLE4=Aceite o meu coração
TTITLE5=Estou mal
TTITLE6=Sem saída
TTITLE7=Meu mel
TTITLE8=Como um anjo
TTITLE9=Meu gostoso bom bom
TTITLE10=Me leva pra casa
TTITLE11=Cheiro de shampoo
TTITLE12=Voando sem asas
TTITLE13=Amor dividido
TTITLE14=Coração
TTITLE15=Chora alma minha
TTITLE16=Um cantinho pro seu coração
TTITLE17=Vida de cão
EXTD=o som tropical do Brasil em ritmo de arrocha
EXTT0=
EXTT1=
EXTT2=
EXTT3=
EXTT4=
EXTT5=
EXTT6=
EXTT7=
EXTT8=
EXTT9=
EXTT10=
EXTT11=
EXTT12=
EXTT13=
EXTT14=
EXTT15=
EXTT16=
EXTT17=
PLAYORDER=
